<svg version="1.1" xmlns="http://www.w3.org/2000/svg" xmlns:xlink="http://www.w3.org/1999/xlink" width="70.76448" height="65.22377" viewBox="0,0,70.76448,65.22377"><g transform="translate(-186.18917,-131.03329)"><g data-paper-data="{&quot;isPaintingLayer&quot;:true}" fill-rule="nonzero" stroke-linejoin="miter" stroke-miterlimit="10" stroke-dasharray="" stroke-dashoffset="0" style="mix-blend-mode: normal"><path d="M195.74052,146.49881l45.2471,-0.02679l0.02887,48.75766l-45.2471,0.02679z" data-paper-data="{&quot;index&quot;:null}" fill="#ffffff" stroke="#8c0000" stroke-width="2" stroke-linecap="butt"/><path d="M203.38994,152.0588l10.66819,-0.00632l0.00662,11.18858l-10.66819,0.00632z" data-paper-data="{&quot;index&quot;:null}" fill="#ff6b6b" stroke="#1d0000" stroke-width="2" stroke-linecap="butt"/><path d="M222.45338,153.09257l12.0673,-0.00714l0.00621,10.4933l-12.0673,0.00714z" data-paper-data="{&quot;index&quot;:null}" fill="#ff6b6b" stroke="#1d0000" stroke-width="2" stroke-linecap="butt"/><path d="M206.55459,180.20968l21.86104,-0.01294l0.00569,9.61886l-21.86104,0.01294z" data-paper-data="{&quot;index&quot;:null}" fill="#ff5915" stroke="#1d0000" stroke-width="2" stroke-linecap="butt"/><path d="M219.70254,180.31811c0.23307,-0.3356 0.64309,-0.63753 1.35827,-0.55849c1.49093,0.16476 1.32616,1.65569 1.32616,1.65569c-0.06979,0.62281 -0.41256,3.85746 -0.54566,3.98304c-2.04229,1.92673 -4.01909,-0.05256 -5.9054,-0.56558c-0.84305,-0.22929 -2.22967,0.2104 -2.55094,-0.60206c-0.46191,-1.16813 -0.10225,-2.86373 0.86229,-3.66843c0.38467,-0.32093 4.17561,-0.28561 5.42399,-0.28635l0.03129,0.04218z" data-paper-data="{&quot;index&quot;:null}" fill="#ffffff" stroke="none" stroke-width="0.5" stroke-linecap="butt"/><path d="M186.43932,140.77436l59.412,-0.03517l0.00238,4.02793l-59.412,0.03517z" data-paper-data="{&quot;index&quot;:null}" fill="#b98f00" stroke="#000000" stroke-width="0.5" stroke-linecap="butt"/><path d="M203.14963,131.29882l25.98017,-0.01538l0.00548,9.26425l-25.98017,0.01538z" data-paper-data="{&quot;index&quot;:null}" fill="#b98f00" stroke="#000000" stroke-width="0.5" stroke-linecap="butt"/><path d="M246.44709,179.24876l-8.20109,-5.5485" data-paper-data="{&quot;index&quot;:null}" fill="none" stroke="#ffad00" stroke-width="2" stroke-linecap="round"/><path d="M188.53392,179.81195l6.34104,-9.52379" data-paper-data="{&quot;index&quot;:null}" fill="none" stroke="#ffad00" stroke-width="2" stroke-linecap="round"/><path d="M248.03955,189.03229l-0.01456,-24.5934l7.66875,-0.26899l0.25991,-7.66907" data-paper-data="{&quot;index&quot;:null}" fill="none" stroke="#000000" stroke-width="2" stroke-linecap="round"/><path d="M248.28442,155.9765l0.0047,7.93335l-6.87573,-0.26038l-0.26899,-7.66875" data-paper-data="{&quot;index&quot;:null}" fill="none" stroke="#000000" stroke-width="2" stroke-linecap="round"/></g></g></svg>