<svg version="1.1" xmlns="http://www.w3.org/2000/svg" xmlns:xlink="http://www.w3.org/1999/xlink" width="211.89391" height="222.51129" viewBox="0,0,211.89391,222.51129"><defs><linearGradient x1="250.21186" y1="218.05269" x2="287.26428" y2="218.05269" gradientUnits="userSpaceOnUse" id="color-1"><stop offset="0" stop-color="#ff0000"/><stop offset="1" stop-color="#ff7e00"/></linearGradient><linearGradient x1="304.21186" y1="218.05269" x2="341.26428" y2="218.05269" gradientUnits="userSpaceOnUse" id="color-2"><stop offset="0" stop-color="#ff0000"/><stop offset="1" stop-color="#ff7e00"/></linearGradient><linearGradient x1="130.21185" y1="219.05268" x2="167.26428" y2="219.05268" gradientUnits="userSpaceOnUse" id="color-3"><stop offset="0" stop-color="#ff0000"/><stop offset="1" stop-color="#fff900"/></linearGradient><linearGradient x1="177.21185" y1="57.55267" x2="214.26428" y2="57.55267" gradientUnits="userSpaceOnUse" id="color-4"><stop offset="0" stop-color="#ff0000"/><stop offset="1" stop-color="#ffe000"/></linearGradient><linearGradient x1="211.21185" y1="45.05268" x2="248.26428" y2="45.05268" gradientUnits="userSpaceOnUse" id="color-5"><stop offset="0" stop-color="#ff0000"/><stop offset="1" stop-color="#ff4c00"/></linearGradient></defs><g transform="translate(-129.79246,-13.89757)"><g data-paper-data="{&quot;isPaintingLayer&quot;:true}" fill-rule="nonzero" stroke="#ff0000" stroke-width="0.5" stroke-linecap="round" stroke-linejoin="miter" stroke-miterlimit="10" stroke-dasharray="" stroke-dashoffset="0" style="mix-blend-mode: normal"><path d="M130.21185,235.81201l18.50385,-33.86159l18.54858,34.20453z" fill="#ff0000"/><path d="M250.21186,234.81202l18.50384,-33.86159l18.54858,34.20453z" fill="url(#color-1)"/><path d="M304.21186,234.81202l18.50384,-33.86159l18.54858,34.20453z" fill="url(#color-2)"/><path d="M130.21185,235.81201l18.50385,-33.86159l18.54858,34.20453z" fill="url(#color-3)"/><path d="M214.26428,14.15494l-18.54858,86.79547l-18.50385,-85.92524z" fill="url(#color-4)"/><path d="M248.26428,15.15495l-18.54858,59.79547l-18.50385,-59.19595z" fill="url(#color-5)"/></g></g></svg>