<svg version="1.1" xmlns="http://www.w3.org/2000/svg" xmlns:xlink="http://www.w3.org/1999/xlink" width="277.68027" height="172.27955" viewBox="0,0,277.68027,172.27955"><defs><linearGradient x1="246.21186" y1="141.0527" x2="283.26428" y2="141.0527" gradientUnits="userSpaceOnUse" id="color-1"><stop offset="0" stop-color="#ff0000"/><stop offset="1" stop-color="#ff7e00"/></linearGradient></defs><g transform="translate(-6.0061,-123.42755)"><g data-paper-data="{&quot;isPaintingLayer&quot;:true}" fill-rule="nonzero" stroke="#ff0000" stroke-width="0.5" stroke-linecap="round" stroke-linejoin="miter" stroke-miterlimit="10" stroke-dasharray="" stroke-dashoffset="0" style="mix-blend-mode: normal"><g fill="#ff6300"><path d="M178.87061,289.11025l18.50385,-33.86159l18.54858,34.20453z"/><path d="M145.42549,288.12657l18.50385,-33.86159l18.54858,34.20453z"/></g><g fill="#ff6300"><path d="M159.87061,294.11025l18.50385,-33.86159l18.54858,34.20453z"/><path d="M126.42549,293.12657l18.50385,-33.86159l18.54858,34.20453z"/></g><g fill="#ff6300"><path d="M193.87061,295.11025l18.50385,-33.86159l18.54858,34.20453z"/><path d="M160.42549,294.12657l18.50385,-33.86159l18.54858,34.20453z"/></g><g fill="#ff6300"><path d="M72.87061,252.11025l18.50385,-33.86159l18.54858,34.20453z"/><path d="M39.42549,251.12657l18.50385,-33.86159l18.54858,34.20453z"/></g><g fill="#ff6300"><path d="M39.87061,206.11025l18.50385,-33.86159l18.54858,34.20453z"/><path d="M6.42549,205.12657l18.50385,-33.86159l18.54858,34.20453z"/></g><path d="M246.21186,157.81203l18.50384,-33.86159l18.54858,34.20453z" fill="url(#color-1)"/></g></g></svg>