<svg version="1.1" xmlns="http://www.w3.org/2000/svg" xmlns:xlink="http://www.w3.org/1999/xlink" width="508.5" height="251" viewBox="0,0,508.5,251"><g transform="translate(8,-141)"><g data-paper-data="{&quot;isPaintingLayer&quot;:true}" fill-rule="nonzero" stroke="#000000" stroke-linecap="butt" stroke-linejoin="miter" stroke-miterlimit="10" stroke-dasharray="" stroke-dashoffset="0" style="mix-blend-mode: normal"><path d="M-7,391v-103h495v103z" fill="#3e749a" stroke-width="2"/><path d="M129,267.5c0,11.32184 -9.17816,20.5 -20.5,20.5c-11.32184,0 -20.5,-9.17816 -20.5,-20.5c0,-11.32184 9.17816,-20.5 20.5,-20.5c11.32184,0 20.5,9.17816 20.5,20.5z" fill="#66ffde" stroke-width="2"/><path d="M186,217.5c0,11.32184 -9.17817,20.5 -20.5,20.5c-11.32183,0 -20.5,-9.17816 -20.5,-20.5c0,-11.32184 9.17817,-20.5 20.5,-20.5c11.32183,0 20.5,9.17816 20.5,20.5z" fill="#66a2ff" stroke-width="2"/><path d="M218,227v-41h120v41z" fill="#b7e5ff" stroke-width="2"/><path d="M384,288v-49h53v49z" fill="#4883ff" stroke-width="1.5"/><path d="M437.5,181v-39h62v39z" fill="#284465" stroke-width="2"/></g></g></svg>