<svg version="1.1" xmlns="http://www.w3.org/2000/svg" xmlns:xlink="http://www.w3.org/1999/xlink" width="549" height="485" viewBox="0,0,549,485"><g transform="translate(13.5,112)"><g data-paper-data="{&quot;isPaintingLayer&quot;:true}" fill-rule="nonzero" stroke="none" stroke-width="0" stroke-linecap="butt" stroke-linejoin="miter" stroke-miterlimit="10" stroke-dasharray="" stroke-dashoffset="0" style="mix-blend-mode: normal"><path d="M-12.5,373v-88h497v88z" fill="#1a3638"/><path d="M-6.63783,129.37542c0,0 0.37625,47.26903 31.57774,76.97132c13.35439,12.71272 56.67195,41.60589 76.47372,46.51754c9.25608,2.29588 74.0406,19.81133 77.41383,22.91449c5.35121,4.92279 23.63054,5.23096 34.29325,14.85682c17.2565,15.57846 27.51715,40.98901 27.51715,40.98901l-1.07817,-6.98839l-243.99594,1.7269z" fill="#1a3638"/><path d="M-13.5,22.85864v-134.85864h524v107.70965c-7.01193,3.81034 -12.816,9.62945 -19.15412,14.4083c-1.83114,1.38066 -4.19718,1.85551 -6.23939,2.8989c-3.41941,1.74702 -6.29701,4.44582 -9.62575,6.33405c-2.06671,1.17234 -4.02262,2.31402 -5.94662,3.50774z" fill="#4ca0a6"/><path d="M510.5,22.85864h-2.76922c0.92667,-0.7244 1.84928,-1.46555 2.76922,-2.21267z" fill="#4ca0a6"/><path d="M488.5,35.358c-1.06028,0.28067 -2.11773,0.57896 -3.172,0.89062c1.05536,-0.72096 2.10937,-1.44234 3.172,-2.13815z" fill="#4ca0a6"/><path d="" fill="#4ca0a6"/><path d="" fill="#4ca0a6"/><path d="M55.20168,22h-55.70169l54,-1c0,0 0.58513,0.34522 1.70169,1z" fill="#4ca0a6"/><path d="M-9.5,50v-35h522v35z" fill="#4ca0a6"/><path d="M383.5,285v-45h116v45z" fill="#aad3ff"/><path d="M381.5,94v-45h116v45z" fill="#aad3ff"/><path d="M419.5,259v-45h116v45z" fill="#aad3ff"/><path d="M409.5,119v-45h116v45z" fill="#aad3ff"/></g></g></svg>