<svg version="1.1" xmlns="http://www.w3.org/2000/svg" xmlns:xlink="http://www.w3.org/1999/xlink" width="624.90469" height="453.17059" viewBox="0,0,624.90469,453.17059"><g transform="translate(82.40466,39.14366)"><g data-paper-data="{&quot;isPaintingLayer&quot;:true}" fill-rule="nonzero" stroke-linecap="butt" stroke-linejoin="miter" stroke-miterlimit="10" stroke-dasharray="" stroke-dashoffset="0" style="mix-blend-mode: normal"><path d="M513.5,381.65576c0,19.11432 -18.0881,27.44512 -34.49386,25.33046c-0.92697,-0.11948 -1.65401,-1.10622 -2.58823,-1.07843c-5.31112,0.158 -12.02591,1.73155 -17.91791,1.74797c-15.17478,0.0423 -30.35054,-0.16232 -45.52451,0c-2.43775,0.02608 -4.98685,0.95096 -7.47549,1c-16.49772,0.32507 -32.83552,-2.82535 -49.38463,-3c-24.21362,-0.25553 -48.42995,-0.01531 -72.64491,0c-2.33896,0.00148 -4.90933,1.15576 -7.368,1.15576c-6.37587,0 -12.753,-0.31129 -19.12697,-0.15576c-2.45941,0.06001 -4.96636,0.97864 -7.47549,1c-25.05974,0.21333 -49.93766,1.15672 -75,1c-3.81746,-0.02387 -7.33814,-1.47545 -11.07764,-2c-6.89542,-0.96724 -14.37142,-1.43397 -21.30699,-2c-15.76211,-1.28638 -32.14021,-1.65941 -47.83868,-1c-4.11818,0.17298 -8.15381,1.21681 -12.24116,1.74874c-5.5469,0.72187 -11.27583,1.19918 -16.88276,1.25126c-12.66724,0.11767 -26.70961,4.27487 -39.72381,5.81119c-18.13547,2.14089 -36.60506,3.07377 -53.42896,-3.93619c-3.54742,-1.47809 -7.76045,-6.17032 -9.11196,-9.33924c-2.19044,-5.13599 -7.86002,-9.0786 -10.49928,-14.0478c-3.31464,-6.24079 -3.90659,-13.62192 -7.02452,-19.85778c-1.82907,-3.47409 -2.86424,-7.43125 -2.86424,-11.63018c0,-2.78436 0.45518,-5.46241 1.2952,-7.96379c0.91646,-2.8462 2.29943,-5.54196 4.08598,-7.93121c-3.69068,-4.02902 -5.94768,-8.83284 -8.73373,-13.56416c-4.04457,-6.86854 -11.00296,-11.63738 -14.75869,-18.70864c-5.87303,-11.05771 -5.3788,-22.91901 -5.88876,-35.10333c-0.19606,-4.68447 -1.3085,-9.23847 -0.74874,-13.92016c3.51065,-29.36177 16.25297,-57.25878 27.69388,-84.13263c2.31374,-5.43481 7.54113,-12.90285 9.7634,-16.43427c1.00053,-1.58995 2.35129,-3.18697 3.61379,-4.57523c0.42224,-0.46431 1.33327,-0.70374 1.33133,-1.33133c-0.04079,-13.16097 -13.52725,-26.91206 -16.22546,-40.38379c-3.8433,-19.18898 -6.04667,-39.49661 -4.30413,-59.09481c0.76113,-8.56036 1.64322,-17.16821 3.21608,-25.62238c0.62972,-3.38476 2.25811,-6.63062 2.67279,-10.01943c0.48723,-3.98172 1.04293,-8.50977 2.22884,-12.38239c2.4142,-7.88365 8.56744,-17.13499 15.89583,-20.92553c2.03166,-1.05086 4.03278,-2.24515 6.23327,-2.86947c1.94315,-0.55131 4.90317,1.06758 6.02882,-0.60954c2.30626,-3.43611 2.32811,-6.8991 5.6847,-9.79797c12.9791,-11.20922 29.50497,-9.4238 41.00936,3.26118c0.56843,0.62677 0.40313,1.66417 0.81165,2.40516c4.13129,7.49345 7.44596,13.19995 10.18777,17.87237c14.4279,-0.96952 28.91474,-1.84842 43.271,-2.77082c4.70565,-0.30234 10.19212,0.11731 14.38894,-0.05358c15.46061,-0.62952 30.62957,-1.80236 46.16925,-2c2.32508,-0.02957 4.70194,-0.96822 7.07764,-1c10.42983,-0.13954 18.44096,-1.05754 28.73661,-1.89733c14.04121,-1.14531 28.1757,-0.16647 42.26339,-0.10267c9.88343,0.04476 18.89145,3.1478 28.50093,4.20509c7.23295,0.79581 23.96237,1.75056 29.12368,1.79491c31.21179,0.26819 62.52675,-2.40523 93.63878,0.10267c17.11035,1.37924 34.33215,1.43041 51.48972,0.89733c9.47575,-0.29441 25.03693,-4.13843 35.15314,-1.60937c0.93814,0.23453 1.91385,0.42112 2.8935,0.61185c0.06683,-0.00095 0.13359,-0.00177 0.20025,-0.00248c19.72081,-0.20873 40.41003,-5.29743 54.09375,10.54688c2.42218,2.80463 2.61684,6.95173 3.51563,10.54687c0.32007,1.2803 0.51516,2.53956 0.60056,3.77991l0.18761,-0.02943l3.62513,0.92067l0.47119,-0.09536l0.98419,0.41008l1.03374,0.16216l1.22285,0.46585l3.66855,0.93169l1.03652,1.16381l0.82444,0.5207l1.71128,0.71303l3.446,3.54172l3.54172,3.446l0.71303,1.71128l0.68451,1.08381l1,2l0.63116,1.65681l0.72524,1.61784l1,3l0.86469,3.82932l0.00119,0.08711l0.02641,0.08302l0.39063,3.90625v20l-0.10356,1.03556l0.0172,1.04058l-1,12l-0.07438,0.40231l-0.00658,0.40907l-5,43l-0.06352,0.29028l-0.01181,0.29691l-7.90216,56.30291l-0.63042,7.56501l0.357,1.58099l0.00119,0.08711l0.02641,0.08302l0.39063,3.90625v1.98913l0.15576,0.61332l-0.15576,0.993v0.40454l-0.39062,3.90625l-0.56327,1.77027l-0.28789,1.83527l-1.2342,3.23977l-1.52403,18.28831v3.96014l-0.39062,3.90625l-2.45091,7.70286l0.73886,8.1275l-0.01022,1.13449l0.11289,1.1289v45l-0.11289,1.1289l0.01022,1.13449l-0.89733,9.87063v0.86597l-0.39062,3.90625l-0.02641,0.08302l-0.00119,0.08711l-0.86469,3.82932l-0.28714,0.86143l-0.6812,4.76841l-0.43273,1.75636l-0.01604,0.22094l-0.2632,0.91241l-0.22717,0.92204l-0.09634,0.19947l-0.50135,1.73801l-1.61524,4.03809c3.54931,9.48696 9.47699,20.01085 2.764,30.08033c-1.89227,2.83841 -4.33595,5.4062 -7.1187,7.45992c1.13519,3.14551 1.75802,6.49934 1.75802,9.79265z" fill="#ff3737" stroke="none" stroke-width="0.5"/><text transform="translate(57.85671,89.9788) scale(1.64457,1.64457)" font-size="40" xml:space="preserve" fill="#000000" fill-rule="nonzero" stroke="#31ffff" stroke-width="1" stroke-linecap="butt" stroke-linejoin="miter" stroke-miterlimit="10" stroke-dasharray="" stroke-dashoffset="0" font-family="Marker" font-weight="normal" text-anchor="start" style="mix-blend-mode: normal"><tspan x="0" dy="0">Game Over!</tspan></text></g></g></svg>