<svg version="1.1" xmlns="http://www.w3.org/2000/svg" xmlns:xlink="http://www.w3.org/1999/xlink" width="524.78571" height="434" viewBox="0,0,524.78571,434"><g transform="translate(15,62)"><g data-paper-data="{&quot;isPaintingLayer&quot;:true}" fill-rule="nonzero" stroke-linejoin="miter" stroke-miterlimit="10" stroke-dasharray="" stroke-dashoffset="0" style="mix-blend-mode: normal"><path d="M-10,345v-406h516v406z" fill="#ffffff" stroke="#000000" stroke-width="2" stroke-linecap="butt"/><text transform="translate(100.44684,54.69361) scale(1.07783,1.07783)" font-size="40" xml:space="preserve" fill="#ff7575" fill-rule="nonzero" stroke="none" stroke-width="1" stroke-linecap="butt" stroke-linejoin="miter" stroke-miterlimit="10" stroke-dasharray="" stroke-dashoffset="0" font-family="Handwriting" font-weight="normal" text-anchor="start" style="mix-blend-mode: normal"><tspan x="0" dy="0">Farmer,</tspan><tspan x="0" dy="46.150000000000006px">             A </tspan><tspan x="0" dy="46.150000000000006px">                 Platformer</tspan></text><path d="M106.75693,253.35524c0.38059,-0.54802 1.05014,-1.04106 2.218,-0.91199c2.43463,0.26905 2.16557,2.70368 2.16557,2.70368c-0.11396,1.01703 -0.6737,6.29909 -0.89104,6.50416c-3.33498,3.14628 -6.56303,-0.08583 -9.6433,-0.92357c-1.37667,-0.37442 -3.64097,0.34358 -4.16559,-0.98314c-0.75428,-1.90751 -0.16697,-4.67637 1.40809,-5.99041c0.62815,-0.52407 6.81862,-0.46639 8.85718,-0.4676z" data-paper-data="{&quot;index&quot;:null}" fill="#ffffff" stroke="none" stroke-width="0.5" stroke-linecap="butt"/><path d="M-15,372v-93h524.78571v93z" fill="#9966ff" stroke="none" stroke-width="NaN" stroke-linecap="butt"/><path d="M44.62784,83.12958l73.88684,-0.04375l0.04714,79.61946l-73.88684,0.04375z" data-paper-data="{&quot;index&quot;:null}" fill="#ffffff" stroke="#8c0000" stroke-width="2" stroke-linecap="butt"/><path d="M57.11906,92.20883l17.42076,-0.01032l0.01081,18.27054l-17.42076,0.01032z" data-paper-data="{&quot;index&quot;:null}" fill="#ff6b6b" stroke="#1d0000" stroke-width="2" stroke-linecap="butt"/><path d="M88.24895,93.89694l19.70545,-0.01166l0.01014,17.13517l-19.70545,0.01166z" data-paper-data="{&quot;index&quot;:null}" fill="#ff6b6b" stroke="#1d0000" stroke-width="2" stroke-linecap="butt"/><path d="M62.28682,138.17818l35.69827,-0.02113l0.00929,15.70724l-35.69827,0.02113z" data-paper-data="{&quot;index&quot;:null}" fill="#ff5915" stroke="#1d0000" stroke-width="2" stroke-linecap="butt"/><path d="M83.75693,138.35524c0.38059,-0.54802 1.05014,-1.04106 2.218,-0.91199c2.43463,0.26905 2.16557,2.70368 2.16557,2.70368c-0.11396,1.01703 -0.6737,6.29909 -0.89104,6.50416c-3.33498,3.14628 -6.56303,-0.08583 -9.6433,-0.92357c-1.37667,-0.37442 -3.64097,0.34358 -4.16559,-0.98314c-0.75428,-1.90751 -0.16697,-4.67637 1.40809,-5.99041c0.62815,-0.52407 6.81862,-0.46639 8.85718,-0.4676z" data-paper-data="{&quot;index&quot;:null}" fill="#ffffff" stroke="none" stroke-width="0.5" stroke-linecap="butt"/><path d="M29.43933,73.78176l97.0176,-0.05743l0.00389,6.57746l-97.0176,0.05743z" data-paper-data="{&quot;index&quot;:null}" fill="#b98f00" stroke="#000000" stroke-width="0.5" stroke-linecap="butt"/><path d="M56.72664,58.30855l42.42466,-0.02511l0.00895,15.12818l-42.42466,0.02511z" data-paper-data="{&quot;index&quot;:null}" fill="#b98f00" stroke="#000000" stroke-width="0.5" stroke-linecap="butt"/><path d="M127.4298,136.60904l-13.39208,-9.0605" data-paper-data="{&quot;index&quot;:null}" fill="none" stroke="#ffad00" stroke-width="2" stroke-linecap="round"/><path d="M32.85973,137.5287l10.35468,-15.552" data-paper-data="{&quot;index&quot;:null}" fill="none" stroke="#ffad00" stroke-width="2" stroke-linecap="round"/><path d="M130.03022,152.58518l-0.02378,-40.16011l12.52279,-0.43925l0.42442,-12.52331" data-paper-data="{&quot;index&quot;:null}" fill="none" stroke="#000000" stroke-width="2" stroke-linecap="round"/><path d="M130.43009,98.60629l0.00767,12.95487l-11.22781,-0.42519l-0.43925,-12.52279" data-paper-data="{&quot;index&quot;:null}" fill="none" stroke="#000000" stroke-width="2" stroke-linecap="round"/></g></g></svg>