<svg version="1.1" xmlns="http://www.w3.org/2000/svg" xmlns:xlink="http://www.w3.org/1999/xlink" width="71.82908" height="36.61765" viewBox="0,0,71.82908,36.61765"><defs><linearGradient x1="215.25999" y1="294.80539" x2="215.25999" y2="316.48987" gradientUnits="userSpaceOnUse" id="color-1"><stop offset="0" stop-color="#ff0000"/><stop offset="1" stop-color="#ff7100"/></linearGradient><linearGradient x1="215.25999" y1="316.42829" x2="215.25999" y2="328.92304" gradientUnits="userSpaceOnUse" id="color-2"><stop offset="0" stop-color="#ff0000"/><stop offset="1" stop-color="#ff7100"/></linearGradient></defs><g transform="translate(-179.34544,-293.55539)"><g data-paper-data="{&quot;isPaintingLayer&quot;:true}" fill-rule="nonzero" stroke="#000000" stroke-width="2.5" stroke-linecap="butt" stroke-linejoin="miter" stroke-miterlimit="10" stroke-dasharray="" stroke-dashoffset="0" style="mix-blend-mode: normal"><g><path d="M180.59544,316.48987c0,0 0,-12.53276 0,-16.48514c0,-2.21966 3.91277,-3.45772 3.91277,-3.45772c0,0 1.03188,-1.74162 5.54298,-1.74162c8.91088,0 38.37942,0.34832 51.6485,0.34832c3.63423,0 5.09461,1.04498 5.09461,1.04498c0,0 3.13022,0.24504 3.13022,1.7161c0,3.59549 0,18.57509 0,18.57509z" fill="url(#color-1)"/><path d="M180.59544,328.92304v-12.49475h69.32907v12.49475z" fill="url(#color-2)"/></g><path d="M245.61246,305.57792c0,2.69324 -4.72987,4.87654 -10.56447,4.87654c-5.8346,0 -10.56447,-2.1833 -10.56447,-4.87654c0,-2.69324 4.72987,-4.87654 10.56447,-4.87654c5.8346,0 10.56447,2.1833 10.56447,4.87654z" fill="#ffffff"/><path d="M241.69969,305.92624c0,0.96187 -1.40144,1.74162 -3.13022,1.74162c-1.72876,0 -3.13022,-0.77975 -3.13022,-1.74162c0,-0.96187 1.40144,-1.74162 3.13022,-1.74162c1.72876,0 3.13022,0.77975 3.13022,1.74162z" fill="#000000"/></g></g></svg>