<svg version="1.1" xmlns="http://www.w3.org/2000/svg" xmlns:xlink="http://www.w3.org/1999/xlink" width="59.5862" height="65.61392" viewBox="0,0,59.5862,65.61392"><defs><linearGradient x1="209.13855" y1="265.80912" x2="209.13855" y2="305.92304" gradientUnits="userSpaceOnUse" id="color-1"><stop offset="0" stop-color="#ff0000"/><stop offset="1" stop-color="#ff7100"/></linearGradient><linearGradient x1="209.13855" y1="305.80912" x2="209.13855" y2="328.92304" gradientUnits="userSpaceOnUse" id="color-2"><stop offset="0" stop-color="#ff0000"/><stop offset="1" stop-color="#ff7100"/></linearGradient></defs><g transform="translate(-179.34544,-264.55912)"><g data-paper-data="{&quot;isPaintingLayer&quot;:true}" fill-rule="nonzero" stroke="#000000" stroke-width="2.5" stroke-linecap="butt" stroke-linejoin="miter" stroke-miterlimit="10" stroke-dasharray="" stroke-dashoffset="0" style="mix-blend-mode: normal"><g><g><path d="M180.59544,305.92304c0,0 0,-23.18423 0,-30.4957c0,-4.10613 3.22181,-6.39641 3.22181,-6.39641c0,0 0.84966,-3.22181 4.56414,-3.22181c7.3373,0 31.60197,0.64436 42.52786,0.64436c2.99246,0 4.19495,1.93309 4.19495,1.93309c0,0 2.57745,0.4533 2.57745,3.1746c0,6.65126 0,34.36188 0,34.36188z" fill="url(#color-1)"/><path d="M180.59544,328.92304v-23.11392h57.0862v23.11392z" fill="url(#color-2)"/></g><path d="M234.13106,285.73712c0,4.98219 -3.89462,9.02106 -8.69888,9.02106c-4.80426,0 -8.69888,-4.03887 -8.69888,-9.02106c0,-4.98219 3.89462,-9.02106 8.69888,-9.02106c4.80426,0 8.69888,4.03887 8.69888,9.02106z" fill="#ffffff"/><path d="M230.90925,286.38148c0,1.77936 -1.15396,3.22181 -2.57745,3.22181c-1.42348,0 -2.57745,-1.44245 -2.57745,-3.22181c0,-1.77936 1.15396,-3.22181 2.57745,-3.22181c1.42348,0 2.57745,1.44245 2.57745,3.22181z" fill="#000000"/></g></g></g></svg>