<svg version="1.1" xmlns="http://www.w3.org/2000/svg" xmlns:xlink="http://www.w3.org/1999/xlink" width="61.7343" height="71.82548" viewBox="0,0,61.7343,71.82548"><defs><linearGradient x1="209.13855" y1="305.80912" x2="209.13855" y2="328.92304" gradientUnits="userSpaceOnUse" id="color-1"><stop offset="0" stop-color="#ff0000"/><stop offset="1" stop-color="#ff7100"/></linearGradient><linearGradient x1="204.46617" y1="261.42521" x2="209.01338" y2="301.28057" gradientUnits="userSpaceOnUse" id="color-2"><stop offset="0" stop-color="#ff0000"/><stop offset="1" stop-color="#ff7100"/></linearGradient></defs><g transform="translate(-177.19734,-258.34756)"><g data-paper-data="{&quot;isPaintingLayer&quot;:true}" fill-rule="nonzero" stroke="#000000" stroke-width="2.5" stroke-linecap="butt" stroke-linejoin="miter" stroke-miterlimit="10" stroke-dasharray="" stroke-dashoffset="0" style="mix-blend-mode: normal"><path d="M180.59544,328.92304v-23.11392h57.0862v23.11392z" fill="url(#color-1)"/><g><path d="M180.65425,304.51614c0,0 -2.6281,-23.03479 -3.45691,-30.29913c-0.46546,-4.07967 2.47596,-6.7204 2.47596,-6.7204c0,0 0.47897,-3.29736 4.16951,-3.71842c7.29001,-0.83173 31.47132,-2.9421 42.32678,-4.18063c2.97317,-0.33922 4.38704,1.4451 4.38704,1.4451c0,0 2.61222,0.1582 2.9207,2.86196c0.75397,6.60839 3.89517,34.14039 3.89517,34.14039z" fill="url(#color-2)"/><path d="M231.55657,278.39168c0.56477,4.95008 -2.84691,9.40439 -7.62021,9.94899c-4.77329,0.5446 -9.10064,-3.02676 -9.66541,-7.97683c-0.56477,-4.95008 2.84691,-9.40439 7.62021,-9.94899c4.77329,-0.5446 9.10064,3.02676 9.66541,7.97683z" fill="#ffffff"/><path d="M228.42857,279.3971c0.2017,1.76789 -0.78131,3.33186 -2.19562,3.49322c-1.41431,0.16136 -2.72435,-1.14098 -2.92605,-2.90887c-0.2017,-1.76789 0.78131,-3.33185 2.19562,-3.49321c1.41431,-0.16136 2.72435,1.14098 2.92605,2.90887z" fill="#000000"/></g></g></g></svg>