<svg version="1.1" xmlns="http://www.w3.org/2000/svg" xmlns:xlink="http://www.w3.org/1999/xlink" width="69.33115" height="81.17956" viewBox="0,0,69.33115,81.17956"><defs><linearGradient x1="209.13855" y1="305.80912" x2="209.13855" y2="328.92304" gradientUnits="userSpaceOnUse" id="color-1"><stop offset="0" stop-color="#ff0000"/><stop offset="1" stop-color="#ff7100"/></linearGradient><linearGradient x1="194.63166" y1="257.35398" x2="208.84352" y2="294.86599" gradientUnits="userSpaceOnUse" id="color-2"><stop offset="0" stop-color="#ff0000"/><stop offset="1" stop-color="#ff7100"/></linearGradient></defs><g transform="translate(-169.60049,-248.99348)"><g data-paper-data="{&quot;isPaintingLayer&quot;:true}" fill-rule="nonzero" stroke="#000000" stroke-width="2.5" stroke-linecap="butt" stroke-linejoin="miter" stroke-miterlimit="10" stroke-dasharray="" stroke-dashoffset="0" style="mix-blend-mode: normal"><path d="M180.59544,328.92304v-23.11392h57.0862v23.11392z" fill="url(#color-1)"/><g><path d="M182.15181,304.97845c0,0 -8.21387,-21.68043 -10.80424,-28.51764c-1.45475,-3.83979 0.74666,-7.12297 0.74666,-7.12297c0,0 -0.34689,-3.31386 3.12665,-4.62985c6.86138,-2.5995 29.78046,-10.59361 39.99765,-14.46451c2.79836,-1.06019 4.60772,0.32148 4.60772,0.32148c0,0 2.57087,-0.48926 3.53499,2.05553c2.35646,6.21984 12.17397,32.13305 12.17397,32.13305z" fill="url(#color-2)"/><path d="M225.06332,267.13486c1.76513,4.65903 -0.44595,9.81573 -4.9386,11.51782c-4.49263,1.70209 -9.56556,-0.695 -11.33068,-5.35402c-1.76513,-4.65903 0.44595,-9.81573 4.9386,-11.51782c4.49263,-1.70209 9.56556,0.695 11.33068,5.35402z" fill="#ffffff"/><path d="M222.27877,268.87887c0.6304,1.66394 0.06233,3.42167 -1.26882,3.926c-1.33115,0.50432 -2.92131,-0.43573 -3.55171,-2.09967c-0.6304,-1.66394 -0.06233,-3.42167 1.26882,-3.92599c1.33115,-0.50432 2.92131,0.43573 3.55171,2.09967z" fill="#000000"/></g></g></g></svg>